<svg xmlns="http://www.w3.org/2000/svg" xmlns:xlink="http://www.w3.org/1999/xlink" width="300" zoomAndPan="magnify" viewBox="0 0 224.87999 74.999997" height="100" preserveAspectRatio="xMidYMid meet" version="1.0"><defs><g/><clipPath id="53adfb62c7"><path d="M 7.496094 7.515625 L 67.464844 7.515625 L 67.464844 67.484375 L 7.496094 67.484375 Z M 7.496094 7.515625 " clip-rule="nonzero"/></clipPath><clipPath id="4494f2f1fd"><path d="M 37.480469 7.515625 C 20.921875 7.515625 7.496094 20.941406 7.496094 37.5 C 7.496094 54.058594 20.921875 67.484375 37.480469 67.484375 C 54.039062 67.484375 67.464844 54.058594 67.464844 37.5 C 67.464844 20.941406 54.039062 7.515625 37.480469 7.515625 Z M 37.480469 7.515625 " clip-rule="nonzero"/></clipPath><clipPath id="f622a0590b"><path d="M 17.242188 17.261719 L 57.71875 17.261719 L 57.71875 57.738281 L 17.242188 57.738281 Z M 17.242188 17.261719 " clip-rule="nonzero"/></clipPath><clipPath id="3c46c29ace"><path d="M 37.480469 17.261719 C 26.300781 17.261719 17.242188 26.320312 17.242188 37.5 C 17.242188 48.679688 26.300781 57.738281 37.480469 57.738281 C 48.65625 57.738281 57.71875 48.679688 57.71875 37.5 C 57.71875 26.320312 48.65625 17.261719 37.480469 17.261719 Z M 37.480469 17.261719 " clip-rule="nonzero"/></clipPath><clipPath id="889b9af74f"><path d="M 26.984375 27.003906 L 47.972656 27.003906 L 47.972656 47.996094 L 26.984375 47.996094 Z M 26.984375 27.003906 " clip-rule="nonzero"/></clipPath><clipPath id="b25b4a5aa0"><path d="M 37.480469 27.003906 C 31.683594 27.003906 26.984375 31.703125 26.984375 37.5 C 26.984375 43.296875 31.683594 47.996094 37.480469 47.996094 C 43.277344 47.996094 47.972656 43.296875 47.972656 37.5 C 47.972656 31.703125 43.277344 27.003906 37.480469 27.003906 Z M 37.480469 27.003906 " clip-rule="nonzero"/></clipPath><clipPath id="e9affa4612"><path d="M 33.730469 33.753906 L 41.226562 33.753906 L 41.226562 41.246094 L 33.730469 41.246094 Z M 33.730469 33.753906 " clip-rule="nonzero"/></clipPath><clipPath id="110981f607"><path d="M 37.480469 33.753906 C 35.410156 33.753906 33.730469 35.429688 33.730469 37.5 C 33.730469 39.570312 35.410156 41.246094 37.480469 41.246094 C 39.550781 41.246094 41.226562 39.570312 41.226562 37.5 C 41.226562 35.429688 39.550781 33.753906 37.480469 33.753906 Z M 37.480469 33.753906 " clip-rule="nonzero"/></clipPath></defs><g clip-path="url(#53adfb62c7)"><g clip-path="url(#4494f2f1fd)"><path fill="#386fd6" d="M 7.496094 7.515625 L 67.464844 7.515625 L 67.464844 67.484375 L 7.496094 67.484375 Z M 7.496094 7.515625 " fill-opacity="1" fill-rule="nonzero"/></g></g><g clip-path="url(#f622a0590b)"><g clip-path="url(#3c46c29ace)"><path fill="#ffffff" d="M 17.242188 17.261719 L 57.71875 17.261719 L 57.71875 57.738281 L 17.242188 57.738281 Z M 17.242188 17.261719 " fill-opacity="1" fill-rule="nonzero"/></g></g><g clip-path="url(#889b9af74f)"><g clip-path="url(#b25b4a5aa0)"><path fill="#e84644" d="M 26.984375 27.003906 L 47.972656 27.003906 L 47.972656 47.996094 L 26.984375 47.996094 Z M 26.984375 27.003906 " fill-opacity="1" fill-rule="nonzero"/></g></g><g clip-path="url(#e9affa4612)"><g clip-path="url(#110981f607)"><path fill="#ffffff" d="M 33.730469 33.753906 L 41.226562 33.753906 L 41.226562 41.246094 L 33.730469 41.246094 Z M 33.730469 33.753906 " fill-opacity="1" fill-rule="nonzero"/></g></g><path fill="#386fd6" d="M 70.859375 47.996094 L 217.371094 47.996094 L 217.371094 50.242188 L 70.859375 50.242188 Z M 70.859375 47.996094 " fill-opacity="1" fill-rule="nonzero"/><g fill="#386fd6" fill-opacity="1"><g transform="translate(70.858276, 46.495195)"><g><path d="M 21.078125 -13.828125 C 21.078125 -12.609375 20.742188 -11.503906 20.078125 -10.515625 C 19.421875 -9.535156 18.46875 -8.8125 17.21875 -8.34375 L 21.65625 0 L 14.46875 0 L 10.921875 -7.28125 L 8.546875 -7.28125 L 8.546875 0 L 2.140625 0 L 2.140625 -19.9375 L 14.34375 -19.9375 C 15.769531 -19.9375 16.988281 -19.660156 18 -19.109375 C 19.019531 -18.566406 19.785156 -17.828125 20.296875 -16.890625 C 20.816406 -15.953125 21.078125 -14.929688 21.078125 -13.828125 Z M 14.546875 -13.5625 C 14.546875 -14.082031 14.367188 -14.515625 14.015625 -14.859375 C 13.671875 -15.210938 13.25 -15.390625 12.75 -15.390625 L 8.546875 -15.390625 L 8.546875 -11.703125 L 12.75 -11.703125 C 13.25 -11.703125 13.671875 -11.878906 14.015625 -12.234375 C 14.367188 -12.597656 14.546875 -13.039062 14.546875 -13.5625 Z M 14.546875 -13.5625 "/></g></g></g><g fill="#386fd6" fill-opacity="1"><g transform="translate(93.40216, 46.495195)"><g><path d="M 1.9375 -17.09375 L 1.9375 -21.015625 L 7.703125 -21.015625 L 7.703125 -17.09375 Z M 1.9375 0 L 1.9375 -15.296875 L 7.703125 -15.296875 L 7.703125 0 Z M 1.9375 0 "/></g></g></g><g fill="#386fd6" fill-opacity="1"><g transform="translate(103.051406, 46.495195)"><g><path d="M 12.296875 -15.65625 C 14.066406 -15.65625 15.394531 -15.160156 16.28125 -14.171875 C 17.175781 -13.179688 17.625 -11.757812 17.625 -9.90625 L 17.625 0 L 11.859375 0 L 11.859375 -9.21875 C 11.859375 -9.875 11.6875 -10.398438 11.34375 -10.796875 C 11.007812 -11.191406 10.53125 -11.390625 9.90625 -11.390625 C 9.195312 -11.390625 8.617188 -11.15625 8.171875 -10.6875 C 7.722656 -10.226562 7.5 -9.660156 7.5 -8.984375 L 7.5 0 L 1.734375 0 L 1.734375 -15.296875 L 6.46875 -15.296875 L 6.84375 -12.984375 C 7.4375 -13.796875 8.222656 -14.441406 9.203125 -14.921875 C 10.179688 -15.410156 11.210938 -15.65625 12.296875 -15.65625 Z M 12.296875 -15.65625 "/></g></g></g><g fill="#386fd6" fill-opacity="1"><g transform="translate(122.378871, 46.495195)"><g><path d="M 12.40625 -15.296875 L 19.125 -15.296875 L 13.484375 -9.125 L 19.28125 0 L 12.71875 0 L 9.5 -5.25 L 7.5 -3.296875 L 7.5 0 L 1.734375 0 L 1.734375 -21.046875 L 7.5 -21.046875 L 7.5 -9.453125 Z M 12.40625 -15.296875 "/></g></g></g><g fill="#386fd6" fill-opacity="1"><g transform="translate(141.706336, 46.495195)"><g><path d="M 17.125 0 L 14.546875 -12.140625 L 14.4375 -12.140625 L 11.859375 0 L 4.8125 0 L 0.140625 -19.9375 L 6.8125 -19.9375 L 9.09375 -8.640625 L 9.21875 -8.640625 L 11.484375 -19.9375 L 17.796875 -19.9375 L 20.203125 -8.640625 L 20.3125 -8.640625 L 22.46875 -19.9375 L 28.84375 -19.9375 L 24.171875 0 Z M 17.125 0 "/></g></g></g><g fill="#386fd6" fill-opacity="1"><g transform="translate(170.683047, 46.495195)"><g><path d="M 1.9375 -17.09375 L 1.9375 -21.015625 L 7.703125 -21.015625 L 7.703125 -17.09375 Z M 1.9375 0 L 1.9375 -15.296875 L 7.703125 -15.296875 L 7.703125 0 Z M 1.9375 0 "/></g></g></g><g fill="#386fd6" fill-opacity="1"><g transform="translate(180.332293, 46.495195)"><g><path d="M 9.015625 -15.65625 C 11.066406 -15.65625 12.800781 -15.253906 14.21875 -14.453125 C 15.632812 -13.648438 16.34375 -12.40625 16.34375 -10.71875 L 10.984375 -10.71875 C 10.984375 -11.28125 10.734375 -11.675781 10.234375 -11.90625 C 9.878906 -12.101562 9.441406 -12.203125 8.921875 -12.203125 C 7.535156 -12.203125 6.84375 -11.875 6.84375 -11.21875 C 6.84375 -10.851562 7.082031 -10.59375 7.5625 -10.4375 C 8.050781 -10.28125 8.84375 -10.113281 9.9375 -9.9375 C 11.289062 -9.75 12.421875 -9.523438 13.328125 -9.265625 C 14.234375 -9.003906 15.023438 -8.539062 15.703125 -7.875 C 16.378906 -7.207031 16.71875 -6.273438 16.71875 -5.078125 C 16.71875 -3.117188 15.988281 -1.722656 14.53125 -0.890625 C 13.070312 -0.0664062 11.164062 0.34375 8.8125 0.34375 C 7.457031 0.34375 6.179688 0.15625 4.984375 -0.21875 C 3.785156 -0.59375 2.804688 -1.175781 2.046875 -1.96875 C 1.296875 -2.757812 0.921875 -3.765625 0.921875 -4.984375 L 6.296875 -4.984375 L 6.296875 -4.875 C 6.304688 -4.21875 6.578125 -3.753906 7.109375 -3.484375 C 7.640625 -3.222656 8.207031 -3.09375 8.8125 -3.09375 C 10.414062 -3.09375 11.21875 -3.472656 11.21875 -4.234375 C 11.21875 -4.617188 10.960938 -4.894531 10.453125 -5.0625 C 9.953125 -5.238281 9.132812 -5.425781 8 -5.625 C 6.625 -5.851562 5.492188 -6.101562 4.609375 -6.375 C 3.734375 -6.644531 2.96875 -7.101562 2.3125 -7.75 C 1.65625 -8.394531 1.328125 -9.300781 1.328125 -10.46875 C 1.328125 -12.34375 2.035156 -13.675781 3.453125 -14.46875 C 4.878906 -15.257812 6.734375 -15.65625 9.015625 -15.65625 Z M 9.015625 -15.65625 "/></g></g></g><g fill="#386fd6" fill-opacity="1"><g transform="translate(198.037063, 46.495195)"><g><path d="M 9.65625 -15.65625 C 12.457031 -15.65625 14.597656 -14.992188 16.078125 -13.671875 C 17.554688 -12.359375 18.296875 -10.351562 18.296875 -7.65625 L 18.296875 -6.671875 L 6.8125 -6.671875 C 6.8125 -5.566406 7.054688 -4.734375 7.546875 -4.171875 C 8.046875 -3.609375 8.828125 -3.328125 9.890625 -3.328125 C 10.847656 -3.328125 11.550781 -3.53125 12 -3.9375 C 12.457031 -4.34375 12.6875 -4.882812 12.6875 -5.5625 L 18.296875 -5.5625 C 18.296875 -3.707031 17.585938 -2.257812 16.171875 -1.21875 C 14.765625 -0.175781 12.707031 0.34375 10 0.34375 C 7.15625 0.34375 4.953125 -0.316406 3.390625 -1.640625 C 1.828125 -2.960938 1.046875 -4.96875 1.046875 -7.65625 C 1.046875 -10.28125 1.804688 -12.269531 3.328125 -13.625 C 4.859375 -14.976562 6.96875 -15.65625 9.65625 -15.65625 Z M 9.890625 -11.96875 C 8.066406 -11.96875 7.050781 -11.109375 6.84375 -9.390625 L 12.46875 -9.390625 C 12.46875 -10.179688 12.238281 -10.804688 11.78125 -11.265625 C 11.320312 -11.734375 10.691406 -11.96875 9.890625 -11.96875 Z M 9.890625 -11.96875 "/></g></g></g></svg>