<svg xmlns="http://www.w3.org/2000/svg" xmlns:xlink="http://www.w3.org/1999/xlink" width="100" zoomAndPan="magnify" viewBox="0 0 75 74.999997" height="100" preserveAspectRatio="xMidYMid meet" version="1.0"><defs><clipPath id="c0aee1f41f"><path d="M 37.5 0 C 16.789062 0 0 16.789062 0 37.5 C 0 58.210938 16.789062 75 37.5 75 C 58.210938 75 75 58.210938 75 37.5 C 75 16.789062 58.210938 0 37.5 0 Z M 37.5 0 " clip-rule="nonzero"/></clipPath><clipPath id="5476029e33"><path d="M 12.1875 12.1875 L 62.8125 12.1875 L 62.8125 62.8125 L 12.1875 62.8125 Z M 12.1875 12.1875 " clip-rule="nonzero"/></clipPath><clipPath id="df77b5734e"><path d="M 37.5 12.1875 C 23.519531 12.1875 12.1875 23.519531 12.1875 37.5 C 12.1875 51.480469 23.519531 62.8125 37.5 62.8125 C 51.480469 62.8125 62.8125 51.480469 62.8125 37.5 C 62.8125 23.519531 51.480469 12.1875 37.5 12.1875 Z M 37.5 12.1875 " clip-rule="nonzero"/></clipPath><clipPath id="98de124d70"><path d="M 24.375 24.375 L 50.625 24.375 L 50.625 50.625 L 24.375 50.625 Z M 24.375 24.375 " clip-rule="nonzero"/></clipPath><clipPath id="7015b990cb"><path d="M 37.5 24.375 C 30.25 24.375 24.375 30.25 24.375 37.5 C 24.375 44.75 30.25 50.625 37.5 50.625 C 44.75 50.625 50.625 44.75 50.625 37.5 C 50.625 30.25 44.75 24.375 37.5 24.375 Z M 37.5 24.375 " clip-rule="nonzero"/></clipPath><clipPath id="d01477972d"><path d="M 32.8125 32.8125 L 42.1875 32.8125 L 42.1875 42.1875 L 32.8125 42.1875 Z M 32.8125 32.8125 " clip-rule="nonzero"/></clipPath><clipPath id="b5f8bc1d5a"><path d="M 37.5 32.8125 C 34.910156 32.8125 32.8125 34.910156 32.8125 37.5 C 32.8125 40.089844 34.910156 42.1875 37.5 42.1875 C 40.089844 42.1875 42.1875 40.089844 42.1875 37.5 C 42.1875 34.910156 40.089844 32.8125 37.5 32.8125 Z M 37.5 32.8125 " clip-rule="nonzero"/></clipPath></defs><g clip-path="url(#c0aee1f41f)"><rect x="-7.5" width="90" fill="#386fd6" y="-7.5" height="89.999996" fill-opacity="1"/></g><g clip-path="url(#5476029e33)"><g clip-path="url(#df77b5734e)"><path fill="#ffffff" d="M 12.1875 12.1875 L 62.8125 12.1875 L 62.8125 62.8125 L 12.1875 62.8125 Z M 12.1875 12.1875 " fill-opacity="1" fill-rule="nonzero"/></g></g><g clip-path="url(#98de124d70)"><g clip-path="url(#7015b990cb)"><path fill="#e84644" d="M 24.375 24.375 L 50.625 24.375 L 50.625 50.625 L 24.375 50.625 Z M 24.375 24.375 " fill-opacity="1" fill-rule="nonzero"/></g></g><g clip-path="url(#d01477972d)"><g clip-path="url(#b5f8bc1d5a)"><path fill="#ffffff" d="M 32.8125 32.8125 L 42.1875 32.8125 L 42.1875 42.1875 L 32.8125 42.1875 Z M 32.8125 32.8125 " fill-opacity="1" fill-rule="nonzero"/></g></g></svg>